<?xml version="1.0" encoding="UTF-8"?>
<!-- Generator: visioncortex VTracer 0.6.3 -->
<svg version="1.1" xmlns="http://www.w3.org/2000/svg" width="1280" height="1280">
<path d="M0 0 C64.73 -0.03 129.46 -0.07 194.19 -0.08 C195.15 -0.08 196.11 -0.09 197.09 -0.09 C217.9 -0.09 238.72 -0.1 259.53 -0.1 C269.73 -0.1 279.94 -0.11 290.14 -0.11 C291.16 -0.11 292.17 -0.11 293.22 -0.11 C326.15 -0.12 359.08 -0.13 392.02 -0.15 C425.85 -0.17 459.69 -0.18 493.52 -0.19 C498.3 -0.19 503.08 -0.19 507.85 -0.19 C508.79 -0.19 509.73 -0.19 510.7 -0.19 C525.85 -0.19 541 -0.2 556.14 -0.21 C571.36 -0.23 586.58 -0.23 601.8 -0.23 C610.85 -0.23 619.9 -0.23 628.94 -0.24 C634.98 -0.25 641.02 -0.25 647.06 -0.24 C650.51 -0.24 653.95 -0.24 657.4 -0.25 C661.1 -0.26 664.81 -0.25 668.52 -0.25 C669.59 -0.25 670.66 -0.26 671.77 -0.26 C677.28 -0.24 681.77 0.27 687 2 C687.99 2 688.98 2 690 2 C691.84 2.9 693.65 3.86 695.44 4.88 C699.22 7.03 699.22 7.03 703.12 8.96 C711.51 13.61 714.87 23.65 718 32 C718 47.84 718 63.68 718 80 C773.11 80 828.22 80 885 80 C885 80.33 885 80.66 885 81 C886.05 81.1 887.1 81.2 888.18 81.3 C899.04 82.41 906.97 84.55 916 91 C916.99 91.66 917.98 92.32 919 93 C919 93.66 919 94.32 919 95 C919.99 95.33 920.98 95.66 922 96 C923.44 98.12 923.44 98.12 925 101 C925.61 102.05 926.21 103.11 926.84 104.2 C933.04 115.04 938.67 126.15 943.91 137.49 C946.06 142.14 948.41 146.57 951 151 C951.66 152.26 952.31 153.53 952.94 154.81 C953.27 155.48 953.6 156.15 953.94 156.84 C954.29 157.55 954.64 158.27 955 159 C955.81 160.63 956.62 162.25 957.44 163.88 C997.5 244 997.5 244 998.73 246.48 C999.61 248.22 1000.49 249.95 1001.39 251.68 C1001.84 252.55 1002.29 253.42 1002.75 254.31 C1003.16 255.09 1003.56 255.87 1003.98 256.68 C1005.05 259.11 1005.57 261.38 1006 264 C1006.66 264 1007.32 264 1008 264 C1009.42 267.32 1010.39 270.44 1011 274 C1011.66 274 1012.32 274 1013 274 C1014.42 277.32 1015.39 280.44 1016 284 C1016.66 284 1017.32 284 1018 284 C1019.42 287.32 1020.39 290.44 1021 294 C1021.66 294 1022.32 294 1023 294 C1024.42 297.32 1025.39 300.44 1026 304 C1026.66 304 1027.32 304 1028 304 C1029.42 307.32 1030.39 310.44 1031 314 C1031.66 314 1032.32 314 1033 314 C1034.62 317.23 1036.23 320.46 1037.83 323.7 C1045.56 339.7 1045.56 339.7 1055.68 354.22 C1057 356 1057 356 1057 358 C1057.66 358 1058.32 358 1059 358 C1059.1 358.64 1059.21 359.28 1059.31 359.94 C1059.54 360.62 1059.77 361.3 1060 362 C1060.99 362.33 1061.98 362.66 1063 363 C1064.81 365.26 1066.48 367.5 1068.12 369.88 C1068.58 370.51 1069.04 371.15 1069.5 371.81 C1071.4 374.51 1072.95 376.85 1074 380 C1074.66 380 1075.32 380 1076 380 C1076.65 381.42 1076.65 381.42 1077.31 382.88 C1078.79 386.2 1078.79 386.2 1082 388 C1082 388.66 1082 389.32 1082 390 C1082.66 390 1083.32 390 1084 390 C1085.18 391.68 1085.18 391.68 1086.44 393.88 C1088.17 396.91 1088.99 397.99 1092 400 C1092 400.99 1092 401.98 1092 403 C1092.66 403 1093.32 403 1094 403 C1094.27 403.97 1094.54 404.94 1094.81 405.94 C1095.2 406.95 1095.6 407.96 1096 409 C1096.99 409.33 1097.98 409.66 1099 410 C1100.39 411.56 1100.39 411.56 1101.69 413.44 C1102.12 414.05 1102.56 414.67 1103.01 415.31 C1104 417 1104 417 1104 419 C1104.66 419 1105.32 419 1106 419 C1109 422.46 1109 422.46 1109 425 C1109.66 425 1110.32 425 1111 425 C1111.41 425.95 1111.83 426.9 1112.25 427.88 C1113.66 431.08 1113.66 431.08 1116.12 432.06 C1116.74 432.37 1117.36 432.68 1118 433 C1118.75 435.62 1118.75 435.62 1119 438 C1119.66 438 1120.32 438 1121 438 C1122.62 440.41 1122.62 440.41 1124.44 443.62 C1125.03 444.67 1125.63 445.71 1126.25 446.79 C1126.82 447.85 1127.4 448.91 1128 450 C1128.79 451.23 1128.79 451.23 1129.59 452.48 C1131.61 457.53 1131.4 462.18 1131.36 467.58 C1131.36 468.75 1131.37 469.93 1131.37 471.13 C1131.37 474.38 1131.36 477.63 1131.35 480.88 C1131.34 484.38 1131.34 487.89 1131.34 491.39 C1131.34 497.46 1131.33 503.53 1131.32 509.6 C1131.29 518.38 1131.28 527.15 1131.28 535.93 C1131.27 550.17 1131.25 564.41 1131.23 578.65 C1131.2 592.48 1131.18 606.31 1131.16 620.14 C1131.16 620.99 1131.16 621.84 1131.16 622.72 C1131.16 627 1131.15 631.28 1131.15 635.55 C1131.12 671.04 1131.07 706.52 1131 742 C1130.34 742 1129.68 742 1129 742 C1128.67 743.98 1128.34 745.96 1128 748 C1127.34 748 1126.68 748 1126 748 C1125.84 749.12 1125.84 749.12 1125.68 750.26 C1123.76 758.01 1116.06 762.64 1109.75 766.75 C1106.61 768.18 1104.4 768.24 1101 768 C1101 768.66 1101 769.32 1101 770 C1058.76 770.33 1016.52 770.66 973 771 C973 772.98 973 774.96 973 777 C972.34 777.66 971.68 778.32 971 779 C970.57 780.7 970.21 782.41 969.88 784.12 C967.3 795 961.66 805.07 955.25 814.16 C953.55 816.66 952.27 819.25 951 822 C950.34 822 949.68 822 949 822 C947.79 824.33 946.83 826.5 946 829 C945.34 829 944.68 829 944 829 C943.73 829.58 943.46 830.15 943.19 830.75 C941.97 833.06 940.7 835.02 939 837 C938.34 837 937.68 837 937 837 C936.79 837.54 936.59 838.07 936.38 838.62 C934.47 841.92 931.95 844.59 929 847 C928.34 847 927.68 847 927 847 C927 847.66 927 848.32 927 849 C925.35 850.48 925.35 850.48 923.06 852.19 C922.24 852.8 921.43 853.42 920.58 854.06 C919.73 854.7 918.88 855.34 918 856 C915.71 857.8 913.42 859.61 911.14 861.42 C908.84 863.12 906.47 864.56 904 866 C903.12 866.53 902.25 867.06 901.34 867.61 C876.32 882.57 848.72 890.45 819.58 890.21 C817.28 890.19 814.97 890.19 812.67 890.19 C801.44 890.15 801.44 890.15 798 889 C794.97 888.73 791.94 888.56 788.91 888.38 C786.04 888 784.54 887.29 782 886 C779.61 885.49 777.22 885.04 774.81 884.62 C769.52 883.65 764.79 882.35 759.95 879.96 C757.76 878.83 757.76 878.83 754.31 877.69 C744.58 874.11 735.43 869 727 863 C726.1 862.39 725.2 861.77 724.27 861.14 C717.13 856.26 717.13 856.26 716 854 C714.36 852.96 712.69 851.96 711 851 C710.01 850.34 709.02 849.68 708 849 C708 848.34 708 847.68 708 847 C706.35 846.34 704.7 845.68 703 845 C703 844.01 703 843.02 703 842 C702.24 841.77 701.47 841.55 700.69 841.31 C697.39 839.7 696.68 838.21 695 835 C692.96 831.97 692.96 831.97 690 830 C688.99 828.34 687.99 826.67 687 825 C685.46 822.93 683.89 820.9 682.3 818.87 C681 817 681 817 680 814 C679.34 813.67 678.68 813.34 678 813 C677.59 810.68 677.26 808.34 677 806 C676.34 806 675.68 806 675 806 C669.18 794.54 664.05 783.19 660 771 C630.1 770.98 600.19 770.96 570.29 770.95 C566.76 770.95 563.23 770.95 559.71 770.95 C559 770.94 558.3 770.94 557.58 770.94 C546.2 770.94 534.81 770.93 523.43 770.92 C511.76 770.91 500.08 770.91 488.41 770.91 C481.85 770.9 475.29 770.9 468.73 770.89 C462.57 770.89 456.4 770.89 450.23 770.89 C447.96 770.89 445.69 770.88 443.42 770.88 C440.34 770.88 437.25 770.88 434.16 770.88 C433.25 770.88 432.34 770.87 431.41 770.87 C427.07 770.75 427.07 770.75 423 772 C422.13 774.33 421.35 776.63 420.62 779 C418.76 784.86 416.61 790.43 414 796 C413.32 797.66 412.65 799.33 412 801 C411.34 801 410.68 801 410 801 C409.9 801.7 409.79 802.4 409.69 803.12 C408.28 808.99 405.12 813.28 401.5 817.96 C399.38 820.84 397.7 823.86 396 827 C395.34 827 394.68 827 394 827 C393.73 827.57 393.46 828.14 393.19 828.73 C391.96 831.08 390.57 833.12 389 835.25 C388.23 836.31 388.23 836.31 387.44 837.39 C386.96 837.92 386.49 838.45 386 839 C385.34 839 384.68 839 384 839 C383.6 839.96 383.6 839.96 383.19 840.94 C382 843 382 843 379 844 C378.67 844.99 378.34 845.98 378 847 C377.34 847 376.68 847 376 847 C376 847.66 376 848.32 376 849 C374.39 850.44 374.39 850.44 372.25 852 C371.55 852.52 370.86 853.03 370.14 853.56 C368.15 854.9 366.17 855.98 364 857 C364 857.66 364 858.32 364 859 C362.02 859.66 360.04 860.32 358 861 C358 861.66 358 862.32 358 863 C357.13 863.46 356.26 863.92 355.37 864.39 C354.21 865 353.06 865.62 351.88 866.25 C350.74 866.85 349.6 867.46 348.43 868.08 C345.01 869.93 345.01 869.93 341.98 872.07 C338.87 874.08 335.91 875.35 332.44 876.62 C330.8 877.23 330.8 877.23 329.12 877.85 C328.09 878.23 327.06 878.61 326 879 C323.65 879.91 321.4 880.78 319.19 882 C315.91 883.5 312.44 884.23 308.94 885.06 C303.43 886.38 303.43 886.38 298 888 C294.91 888.31 291.81 888.51 288.71 888.72 C286.04 888.83 286.04 888.83 284 890 C281.41 890.1 278.85 890.14 276.25 890.13 C275.49 890.13 274.72 890.13 273.93 890.14 C272.31 890.14 270.68 890.13 269.06 890.13 C266.58 890.13 264.09 890.13 261.61 890.14 C260.03 890.14 258.46 890.13 256.88 890.13 C256.14 890.13 255.39 890.14 254.62 890.14 C251.48 890.12 249.01 890 246 889 C242.29 888.48 238.58 888.04 234.86 887.6 C231.1 887.02 227.63 886.12 224 885 C223.2 884.78 222.41 884.55 221.59 884.32 C212.68 881.76 203.94 878.81 196 874 C194.33 873.33 192.67 872.66 191 872 C188.72 870.82 186.45 869.61 184.19 868.38 C183.29 867.89 183.29 867.89 182.38 867.39 C180.92 866.6 179.46 865.8 178 865 C178 864.34 178 863.68 178 863 C177.4 862.9 176.8 862.79 176.19 862.69 C173.67 861.9 172.81 860.88 171 859 C170.3 858.65 169.6 858.3 168.88 857.94 C167 857 167 857 166 855 C164.24 853.93 162.43 853.03 160.59 852.1 C159 851 159 851 158 848 C156.69 847.3 155.35 846.64 154 846 C149.92 843.14 146.85 839.68 143.65 835.9 C142.05 833.99 142.05 833.99 140.3 832.42 C139 831 139 831 138.81 828.31 C138.87 827.55 138.94 826.79 139 826 C138.01 826 137.02 826 136 826 C134.52 824.03 133.26 822.11 132 820 C131.39 819.06 131.39 819.06 130.77 818.1 C127.84 813.54 125.35 808.88 123 804 C122.34 804 121.68 804 121 804 C120.89 803.3 120.79 802.61 120.68 801.89 C119.9 798.56 118.62 795.82 117.12 792.75 C114.24 786.64 111.69 780.66 110.44 774 C110.29 773.34 110.15 772.68 110 772 C107.63 770.82 106.2 770.87 103.56 770.86 C102.63 770.86 101.69 770.85 100.73 770.85 C99.7 770.84 98.68 770.84 97.62 770.84 C96.54 770.84 95.46 770.83 94.35 770.83 C91.99 770.82 89.64 770.81 87.29 770.8 C83.57 770.79 79.84 770.77 76.12 770.75 C65.53 770.69 54.94 770.63 44.35 770.6 C37.87 770.58 31.4 770.54 24.93 770.5 C22.46 770.48 19.99 770.47 17.53 770.47 C14.07 770.47 10.61 770.44 7.16 770.42 C5.63 770.42 5.63 770.42 4.08 770.43 C-3.53 770.34 -9.27 768.65 -16 765 C-16 764.34 -16 763.68 -16 763 C-16.75 762.91 -17.49 762.83 -18.26 762.74 C-21.56 761.85 -22.64 760.71 -24.81 758.12 C-25.42 757.43 -26.02 756.73 -26.64 756.01 C-28 754 -28 754 -28 751 C-28.66 751 -29.32 751 -30 751 C-30.35 750.23 -30.7 749.46 -31.06 748.66 C-31.51 747.66 -31.97 746.66 -32.44 745.62 C-32.89 744.63 -33.34 743.63 -33.81 742.6 C-34.52 741.06 -35.24 739.52 -36 738 C-36.13 735.26 -36.19 732.55 -36.19 729.81 C-36.2 729.07 -36.21 728.33 -36.22 727.56 C-36.25 718.58 -33.53 711.08 -28 704 C-27.38 702.97 -26.76 701.94 -26.12 700.88 C-23.81 697.75 -22.57 697.22 -19 696 C-18.34 695.01 -17.68 694.02 -17 693 C-14.37 692.31 -14.37 692.31 -12 692 C-12 691.34 -12 690.68 -12 690 C-9.36 689.67 -6.72 689.34 -4 689 C-4 688.67 -4 688.34 -4 688 C-3.14 687.99 -3.14 687.99 -2.25 687.99 C11.75 687.88 25.75 687.78 39.76 687.66 C46.53 687.61 53.3 687.55 60.07 687.5 C66.6 687.46 73.13 687.4 79.66 687.35 C82.16 687.33 84.66 687.31 87.15 687.29 C90.64 687.27 94.12 687.24 97.61 687.21 C98.65 687.2 99.69 687.19 100.77 687.19 C101.71 687.18 102.66 687.17 103.63 687.16 C104.45 687.15 105.28 687.15 106.13 687.14 C108.01 687.2 108.01 687.2 109 686 C109.23 684.65 109.41 683.3 109.56 681.94 C109.71 680.64 109.85 679.34 110 678 C110.66 678 111.32 678 112 678 C112.19 676.39 112.19 676.39 112.38 674.75 C112.92 671.46 113.49 669.83 115 667 C118.26 660.25 118.26 660.25 120 653 C120.99 653 121.98 653 123 653 C123.1 652.26 123.21 651.51 123.31 650.75 C124.07 647.72 125.11 646.46 127 644 C128.06 641.99 129.05 639.95 130.04 637.9 C131 636 131 636 133 633 C133.66 633 134.32 633 135 633 C135.22 632.04 135.22 632.04 135.44 631.06 C136 629 136 629 137 628 C137.69 627.2 137.69 627.2 138.4 626.38 C143.94 620.06 149.78 614.04 155.69 608.06 C156.51 607.22 157.33 606.38 158.17 605.51 C162.21 601.45 165.63 598.24 171 596 C172.46 594.76 173.91 593.53 175.35 592.27 C177.82 590.37 180.54 589.16 183.36 587.89 C185.19 587.1 185.19 587.1 186 585 C187.65 585 189.3 585 191 585 C191 584.34 191 583.68 191 583 C191.96 582.81 191.96 582.81 192.94 582.62 C193.62 582.42 194.3 582.21 195 582 C195.33 581.34 195.66 580.68 196 580 C197.65 580 199.3 580 201 580 C201 579.34 201 578.68 201 578 C203.31 577.67 205.62 577.34 208 577 C208 576.34 208 575.68 208 575 C209.02 574.81 209.02 574.81 210.06 574.62 C214.46 573.69 218.74 572.42 223 571 C223 570.67 223 570.34 223 570 C226.3 569.67 229.6 569.34 233 569 C233 568.67 233 568.34 233 568 C234.05 567.95 235.1 567.9 236.18 567.85 C237.55 567.78 238.93 567.7 240.31 567.62 C241 567.59 241.69 567.56 242.4 567.53 C246.07 567.32 247.88 567.08 251 565 C253.78 564.74 253.78 564.74 257.14 564.73 C258.96 564.73 258.96 564.73 260.83 564.73 C262.1 564.73 263.37 564.74 264.69 564.75 C265.94 564.74 267.2 564.73 268.49 564.73 C275.04 564.74 280.73 565.12 287 567 C287.99 567 288.98 567 290 567 C291.42 567.28 292.84 567.6 294.25 567.94 C297.03 568.58 299.66 569.08 302.5 569.44 C306.15 570.02 309.36 571.08 312.84 572.3 C315.53 573.17 318.2 573.64 321 574 C321 574.66 321 575.32 321 576 C322.08 575.91 322.08 575.91 323.19 575.81 C326.64 576.04 328.05 577.19 331 579 C333.64 580.38 336.32 581.69 339 583 C346.37 586.62 346.37 586.62 349.88 588.75 C351.88 590.17 351.88 590.17 354 590 C354.33 590.66 354.66 591.32 355 592 C355.99 592.33 356.98 592.66 358 593 C359.33 594.33 360.67 595.67 362 597 C362.66 597 363.32 597 364 597 C364 597.66 364 598.32 364 599 C364.96 599.15 364.96 599.15 365.94 599.31 C366.62 599.54 367.3 599.77 368 600 C368.33 600.99 368.66 601.98 369 603 C370.66 604.01 372.33 605.01 374 606 C374 606.66 374 607.32 374 608 C374.81 608.32 374.81 608.32 375.64 608.66 C378.82 610.46 381.21 612.92 383.75 615.5 C384.26 616 384.76 616.5 385.29 617.01 C389 620.75 389 620.75 389 623 C389.66 623 390.32 623 391 623 C392.03 624.65 393.03 626.32 394 628 C394.66 628.83 395.32 629.65 396 630.5 C398 633 398 633 399.38 635.34 C401.05 638.08 402.91 640.53 404.88 643.06 C408.43 647.9 410.78 652.65 412.92 658.24 C413.82 660.55 414.82 662.64 416 664.81 C418.32 669.26 419.76 674.04 421.25 678.81 C422.23 681.91 423.18 684.27 425 687 C428.12 687.31 431.04 687.42 434.16 687.4 C435.6 687.41 435.6 687.41 437.08 687.42 C440.32 687.44 443.56 687.43 446.8 687.43 C449.11 687.44 451.43 687.45 453.75 687.46 C460.05 687.49 466.35 687.5 472.66 687.51 C479.24 687.52 485.82 687.54 492.4 687.57 C503.45 687.61 514.5 687.63 525.55 687.65 C536.94 687.67 548.32 687.7 559.71 687.74 C560.41 687.74 561.11 687.74 561.83 687.74 C565.35 687.76 568.87 687.77 572.39 687.78 C601.59 687.87 630.8 687.94 660 688 C659.96 687.22 659.92 686.43 659.88 685.62 C660 683 660 683 662 681 C662.35 678.67 662.68 676.33 663 674 C664 671.75 664 671.75 665 670 C665.33 669.01 665.66 668.02 666 667 C666.33 667.33 666.66 667.66 667 668 C667.29 666.95 667.58 665.9 667.88 664.81 C668.78 661.76 669.77 658.92 671 656 C671.29 655.15 671.58 654.31 671.88 653.44 C673.16 650.64 674.8 649.13 677 647 C678.06 645.03 678.99 643.03 679.93 641 C681.85 636.95 683.68 634.09 687 631 C687.33 630.01 687.66 629.02 688 628 C688.99 627.2 689.98 626.39 691 625.56 C694.08 623.35 694.08 623.35 694.88 620.69 C694.92 620.13 694.96 619.57 695 619 C695.66 619 696.32 619 697 619 C697.23 618.44 697.45 617.89 697.69 617.31 C699.38 614.34 701.47 612.28 704 610 C704.66 610 705.32 610 706 610 C706 609.34 706 608.68 706 608 C706.74 607.77 707.49 607.55 708.25 607.31 C711.56 605.73 712.79 603.89 715 601 C716.63 599.62 718.3 598.29 720 597 C720.87 596.26 721.73 595.51 722.62 594.75 C725 593 725 593 728 593 C728 592.01 728 591.02 728 590 C729.32 590 730.64 590 732 590 C732.33 589.34 732.66 588.68 733 588 C737.37 585.33 742.11 583.47 747 582 C747 581.34 747 580.68 747 580 C747.68 579.81 748.35 579.61 749.05 579.41 C749.94 579.15 750.83 578.89 751.75 578.62 C753.07 578.24 753.07 578.24 754.42 577.85 C757.48 576.84 760.15 575.47 762.96 573.91 C765.95 572.58 768.84 572.56 772.07 572.34 C772.71 572.23 773.35 572.12 774 572 C774.33 571.34 774.66 570.68 775 570 C777.07 569.59 777.07 569.59 779.56 569.38 C780.39 569.3 781.22 569.23 782.07 569.15 C782.7 569.1 783.34 569.05 784 569 C784 568.67 784 568.34 784 568 C785.05 567.95 786.1 567.9 787.18 567.85 C788.55 567.78 789.93 567.7 791.31 567.62 C792 567.59 792.69 567.56 793.4 567.53 C797.07 567.32 798.88 567.08 802 565 C804.77 564.76 804.77 564.76 808.1 564.77 C809.92 564.77 809.92 564.77 811.78 564.78 C813.05 564.79 814.32 564.8 815.62 564.81 C816.87 564.81 818.12 564.81 819.4 564.81 C837.9 564.9 837.9 564.9 840 567 C842.71 567.54 845.4 568.04 848.12 568.5 C848.87 568.63 849.62 568.76 850.39 568.89 C853.89 569.5 857.37 570.05 860.89 570.5 C864.3 571.05 866.13 572.16 869 574 C871 574.67 873 575.33 875 576 C882.8 579.38 890.42 583.15 898 587 C899.54 587.77 901.08 588.54 902.62 589.31 C903.74 589.87 904.85 590.43 906 591 C906 591.66 906 592.32 906 593 C908.31 593.66 910.62 594.32 913 595 C913.09 595.93 913.09 595.93 913.19 596.88 C913.8 599.22 913.8 599.22 916.19 600 C917.12 600.33 918.04 600.66 919 601 C924.82 604.47 924.82 604.47 926 608 C926.66 608 927.32 608 928 608 C928 608.66 928 609.32 928 610 C929.32 610.33 930.64 610.66 932 611 C932.33 612.32 932.66 613.64 933 615 C933.66 615 934.32 615 935 615 C936.73 616.68 936.73 616.68 938.62 618.88 C939.57 619.95 939.57 619.95 940.54 621.05 C942 623 942 623 942 625 C942.66 625 943.32 625 944 625 C944 625.99 944 626.98 944 628 C944.66 628 945.32 628 946 628 C947.03 629.65 948.03 631.32 949 633 C949.66 633.83 950.32 634.65 951 635.5 C952.93 637.92 954.43 640.33 956 643 C956.54 643.9 957.09 644.8 957.65 645.73 C963.31 655.24 968.02 664.73 970.94 675.44 C972.05 679.17 973.32 682.49 975 686 C977.91 687.46 980.49 687.17 983.74 687.21 C984.78 687.22 984.78 687.22 985.84 687.24 C988.14 687.27 990.43 687.29 992.73 687.32 C994.32 687.34 995.9 687.36 997.49 687.38 C1001.68 687.43 1005.86 687.48 1010.05 687.53 C1014.32 687.58 1018.59 687.64 1022.86 687.69 C1031.24 687.8 1039.62 687.9 1048 688 C1047.99 686.94 1047.99 685.87 1047.98 684.77 C1047.83 658.89 1047.69 633.01 1047.56 607.14 C1047.49 594.62 1047.42 582.11 1047.35 569.59 C1047.29 558.69 1047.23 547.78 1047.17 536.88 C1047.15 531.1 1047.11 525.32 1047.08 519.55 C1047.05 514.12 1047.02 508.68 1046.99 503.25 C1046.98 501.25 1046.97 499.25 1046.96 497.26 C1046.94 494.54 1046.93 491.82 1046.92 489.1 C1046.91 488.3 1046.9 487.5 1046.9 486.68 C1046.89 481.23 1046.89 481.23 1048 479 C1047.34 479 1046.68 479 1046 479 C1045.67 478.01 1045.34 477.02 1045 476 C1043.67 474.99 1042.34 473.99 1041 473 C1041 472.34 1041 471.68 1041 471 C1040.34 470.67 1039.68 470.34 1039 470 C1038.71 469.38 1038.42 468.76 1038.12 468.12 C1037.15 465.89 1037.15 465.89 1035.09 464.66 C1032.7 462.76 1031.78 461.1 1030.44 458.38 C1029.32 455.99 1029.32 455.99 1028 454 C1027.01 453.67 1026.02 453.34 1025 453 C1023.79 451.11 1023.79 451.11 1022.62 448.75 C1020.22 444.19 1017.75 440.37 1013 438 C1012.33 436.33 1011.67 434.67 1011 433 C1010.34 432.67 1009.68 432.34 1009 432 C1007.98 430.34 1006.98 428.68 1006 427 C1005.34 426.34 1004.68 425.68 1004 425 C1003.71 424.36 1003.42 423.72 1003.12 423.06 C1001.79 420.61 1000.25 419.62 998 418 C996 415 996 415 995 412.94 C994.04 410.84 994.04 410.84 992 409 C991.57 408.47 991.15 407.94 990.71 407.4 C988.31 405.44 986.69 405.63 983.61 405.63 C982.49 405.62 981.36 405.61 980.2 405.61 C978.96 405.61 977.72 405.62 976.44 405.63 C975.12 405.62 973.81 405.62 972.45 405.62 C968.79 405.61 965.13 405.61 961.48 405.63 C957.53 405.63 953.59 405.63 949.65 405.62 C942.81 405.61 935.98 405.61 929.14 405.62 C919.25 405.63 909.35 405.62 899.46 405.61 C883.4 405.58 867.33 405.57 851.27 405.57 C850.31 405.57 849.34 405.57 848.35 405.57 C837.63 405.56 826.9 405.56 816.17 405.56 C812.29 405.56 808.4 405.56 804.51 405.56 C803.56 405.56 802.6 405.56 801.61 405.56 C785.61 405.57 769.62 405.55 753.62 405.52 C743.76 405.51 733.89 405.51 724.02 405.52 C717.26 405.53 710.49 405.53 703.73 405.51 C699.83 405.5 695.93 405.5 692.02 405.51 C688.45 405.53 684.87 405.52 681.3 405.5 C679.4 405.5 677.5 405.51 675.6 405.53 C668.45 405.47 663.25 404.48 657 401 C655.67 400.33 654.34 399.66 653 399 C653 398.34 653 397.68 653 397 C652.16 396.66 652.16 396.66 651.31 396.31 C646.95 393.84 644.04 390.54 642 386 C641.34 385.34 640.68 384.68 640 384 C639.33 381.67 638.67 379.33 638 377 C637.34 376.34 636.68 375.68 636 375 C636.66 375 637.32 375 638 375 C637.79 374.42 637.58 373.83 637.36 373.23 C635.07 366.41 634.57 360.29 634.6 353.13 C634.59 351.97 634.59 350.82 634.58 349.63 C634.56 345.77 634.57 341.92 634.57 338.07 C634.56 335.3 634.55 332.53 634.54 329.76 C634.51 323.81 634.5 317.86 634.5 311.9 C634.49 303.3 634.47 294.69 634.44 286.08 C634.4 272.12 634.37 258.15 634.35 244.19 C634.33 230.63 634.3 217.07 634.26 203.51 C634.26 202.25 634.26 202.25 634.26 200.97 C634.24 196.77 634.23 192.58 634.22 188.38 C634.13 153.59 634.06 118.79 634 84 C633.17 84 633.17 84 632.32 84 C572.09 83.97 511.85 83.94 451.62 83.88 C450.72 83.88 449.82 83.88 448.89 83.88 C429.34 83.86 409.79 83.84 390.25 83.82 C380.66 83.81 371.07 83.8 361.48 83.79 C360.05 83.79 360.05 83.79 358.59 83.79 C327.66 83.76 296.73 83.74 265.8 83.73 C234.02 83.72 202.24 83.69 170.46 83.65 C165.97 83.64 161.49 83.64 157 83.63 C155.67 83.63 155.67 83.63 154.32 83.63 C140.1 83.61 125.87 83.61 111.65 83.61 C97.35 83.61 83.06 83.6 68.76 83.57 C60.26 83.55 51.77 83.55 43.27 83.56 C37.59 83.56 31.92 83.55 26.24 83.53 C23.01 83.52 19.78 83.52 16.54 83.53 C13.06 83.54 9.57 83.53 6.09 83.51 C5.09 83.52 4.08 83.53 3.05 83.53 C-5.15 83.44 -11.61 81.21 -18 76 C-18.96 75.54 -18.96 75.54 -19.94 75.06 C-27.04 71.4 -29.1 66.15 -32 59 C-32.66 59 -33.32 59 -34 59 C-33.96 58.26 -33.92 57.51 -33.88 56.75 C-33.81 54.04 -33.81 54.04 -35 52.06 C-36.34 49.3 -36.06 47.05 -36 44 C-36.28 42.67 -36.28 42.67 -36.56 41.31 C-37 39 -37 39 -36 36 C-35.83 34.65 -35.69 33.29 -35.56 31.94 C-35 28 -35 28 -33 26 C-32.35 23.43 -32.35 23.43 -32 21 C-31.34 21 -30.68 21 -30 21 C-29.67 20.01 -29.34 19.02 -29 18 C-28.34 18 -27.68 18 -27 18 C-26.67 17.01 -26.34 16.02 -26 15 C-25.67 14.34 -25.34 13.68 -25 13 C-24.01 13 -23.02 13 -22 13 C-22 12.01 -22 11.02 -22 10 C-20.67 9.38 -20.67 9.38 -19.31 8.75 C-16.01 7.19 -16.01 7.19 -13.81 4.94 C-9.59 2.03 -5.02 1.67 0 1 C0 0.67 0 0.34 0 0 Z M718 166 C717.69 168.79 717.69 168.79 717.75 172.11 C717.74 173.42 717.73 174.72 717.73 176.06 C717.73 177.52 717.74 178.97 717.74 180.42 C717.74 181.95 717.73 183.47 717.73 185 C717.72 189.14 717.73 193.29 717.73 197.44 C717.74 201.77 717.73 206.1 717.73 210.43 C717.72 217.71 717.73 224.99 717.74 232.26 C717.75 240.69 717.75 249.11 717.74 257.53 C717.73 264.75 717.73 271.97 717.73 279.19 C717.73 283.51 717.73 287.83 717.73 292.14 C717.72 296.2 717.73 300.26 717.74 304.32 C717.74 305.81 717.74 307.3 717.73 308.8 C717.73 310.83 717.74 312.86 717.75 314.89 C717.75 316.03 717.75 317.17 717.75 318.34 C717.73 321.15 717.73 321.15 720 323 C722.93 323.19 725.77 323.26 728.71 323.24 C729.62 323.24 730.53 323.24 731.47 323.25 C734.55 323.25 737.62 323.24 740.7 323.23 C742.9 323.23 745.09 323.23 747.29 323.23 C753.27 323.23 759.25 323.22 765.23 323.2 C771.48 323.19 777.72 323.19 783.97 323.19 C794.45 323.18 804.94 323.17 815.43 323.15 C826.23 323.13 837.03 323.12 847.83 323.11 C848.5 323.11 849.17 323.11 849.85 323.11 C853.19 323.11 856.53 323.1 859.87 323.1 C887.58 323.08 915.29 323.04 943 323 C943 319.88 942.53 318.63 941.21 315.87 C940.82 315.06 940.44 314.25 940.04 313.42 C939.64 312.58 939.23 311.74 938.81 310.88 C938.43 310.06 938.04 309.24 937.64 308.4 C935.31 303.54 932.82 298.81 930.18 294.11 C928.44 291 926.84 287.82 925.25 284.62 C924.91 283.95 924.58 283.28 924.23 282.58 C921.59 277.25 919.04 271.88 916.5 266.5 C911.1 255.04 905.48 243.73 899.5 232.56 C896.11 226.23 892.97 219.82 889.95 213.3 C884.69 202 879.02 190.92 873.14 179.93 C870.98 175.88 868.9 171.81 866.92 167.66 C866 165.81 866 165.81 864 164 C861.4 163.69 861.4 163.69 858.31 163.75 C857.09 163.74 855.88 163.73 854.63 163.73 C853.29 163.73 851.94 163.74 850.59 163.74 C849.17 163.74 847.75 163.73 846.34 163.73 C842.49 163.72 838.64 163.73 834.79 163.73 C830.76 163.74 826.74 163.73 822.71 163.73 C815.95 163.72 809.19 163.73 802.44 163.74 C794.61 163.75 786.79 163.75 778.97 163.74 C772.26 163.73 765.56 163.73 758.85 163.73 C754.84 163.73 750.83 163.73 746.82 163.73 C743.05 163.72 739.28 163.73 735.51 163.74 C734.13 163.74 732.74 163.74 731.35 163.73 C729.47 163.73 727.58 163.74 725.69 163.75 C724.11 163.75 724.11 163.75 722.49 163.75 C719.83 163.75 719.83 163.75 718 166 Z M1035 323 C1036 325 1036 325 1036 325 Z M246 651 C245.16 651.19 244.32 651.39 243.46 651.59 C227.05 655.71 210.16 668.57 200.5 682.25 C198.94 685.11 197.89 687.87 197 691 C196.34 691 195.68 691 195 691 C194.39 692.5 193.79 694 193.19 695.5 C192.68 696.75 192.68 696.75 192.17 698.03 C191.78 699.01 191.4 699.99 191 701 C190.75 701.6 190.49 702.2 190.23 702.82 C188.21 707.81 187.36 712.47 186.88 717.81 C186.1 725.69 186.1 725.69 185 729 C185.45 730.58 185.9 732.16 186.4 733.72 C187.15 736.58 187.53 739.44 187.94 742.38 C189.1 750.26 191.26 756.96 195 764 C195.26 764.6 195.53 765.21 195.8 765.83 C198.49 771.83 202.46 776.29 207 781 C208.05 782.12 208.05 782.12 209.12 783.27 C210.82 785.23 210.82 785.23 213 785 C213.06 785.62 213.12 786.24 213.19 786.88 C213.83 789.28 213.83 789.28 216.56 790.25 C217.77 790.62 217.77 790.62 219 791 C219 791.66 219 792.32 219 793 C221.34 794.75 221.34 794.75 224 796 C224.66 795.67 225.32 795.34 226 795 C226.34 795.92 226.34 795.92 226.69 796.86 C228.41 799.66 229.94 800.13 233 801.25 C233.89 801.59 234.77 801.92 235.69 802.27 C237.91 803.1 237.91 803.1 240 803 C241.67 803.66 243.33 804.33 245 805 C252.33 807.28 259.42 808.28 267.06 808.31 C268.15 808.32 268.15 808.32 269.26 808.33 C273.09 808.28 275.68 807.85 279 806 C281.52 805.64 284.02 805.5 286.56 805.34 C289.11 804.99 290.77 804.23 293 803 C293.99 802.78 293.99 802.78 295 802.56 C297.48 801.86 298.95 800.55 301 799 C303.47 797.92 305.91 797.03 308.5 796.25 C311.3 794.85 312.71 793.12 314.6 790.66 C316.67 788.2 319.13 786.29 321.64 784.3 C322.09 783.87 322.54 783.44 323 783 C323 782.34 323 781.68 323 781 C323.66 781 324.32 781 325 781 C326.51 779.51 326.51 779.51 328 777.62 C329.62 775.66 331.2 773.8 333 772 C333 770.68 333 769.36 333 768 C333.99 767.67 334.98 767.34 336 767 C335.67 765.68 335.34 764.36 335 763 C335.99 763 336.98 763 338 763 C338.19 762.3 338.39 761.6 338.59 760.88 C338.85 759.97 339.11 759.06 339.38 758.12 C339.63 757.22 339.89 756.32 340.15 755.38 C341 753 341 753 343 751 C343.4 749.01 343.74 747.01 344 745 C344.33 745 344.66 745 345 745 C345.07 740.43 345.13 735.86 345.16 731.29 C345.18 729.73 345.2 728.18 345.23 726.63 C345.26 724.39 345.28 722.14 345.29 719.9 C345.31 719.22 345.32 718.53 345.34 717.82 C345.34 712.73 344.06 709.53 342 705 C342 703.68 342 702.36 342 701 C341.34 701 340.68 701 340 701 C339.88 699.87 339.75 698.73 339.62 697.56 C339.42 696.39 339.21 695.21 339 694 C338.34 693.67 337.68 693.34 337 693 C337 692.01 337 691.02 337 690 C336.34 690 335.68 690 335 690 C334.9 689.05 334.79 688.1 334.69 687.12 C334.31 683.71 334.31 683.71 331 682 C329.3 680.02 327.64 678.03 326 676 C324.94 674.7 323.88 673.41 322.81 672.12 C322.08 671.23 322.08 671.23 321.33 670.32 C320.08 668.77 320.08 668.77 318 669 C318 668.34 318 667.68 318 667 C315.73 665.05 315.73 665.05 312.88 663.06 C311.45 662.03 311.45 662.03 309.99 660.97 C307.08 659.05 304.14 657.52 301 656 C300.26 655.48 299.51 654.97 298.75 654.44 C295.28 652.63 291.95 652.08 288.11 651.43 C286 651 286 651 285 650 C271.67 646.8 259.13 647.36 246 651 Z M777.8 658.98 C776 660 776 660 773 661 C772.28 661.72 771.56 662.44 770.81 663.19 C768.55 665.45 766.52 667.12 763.94 668.94 C760.36 671.56 758.33 674.2 756 678 C755.07 679.01 754.13 680.01 753.19 681 C749.03 685.79 746.39 691.41 743.83 697.16 C743.06 698.86 742.26 700.54 741.45 702.22 C736.5 714.17 734.59 733.43 738.97 745.72 C739.48 746.85 739.48 746.85 740 748 C740.59 749.89 741.17 751.79 741.75 753.69 C743.45 758.88 745.68 763.26 748.63 767.84 C750 770 750 770 750.99 772.22 C751.94 774.35 751.94 774.35 755 775 C756.06 777.38 756.06 777.38 757 780 C757.66 780.99 758.32 781.98 759 783 C759.66 783 760.32 783 761 783 C761 783.66 761 784.32 761 785 C762.99 786.74 762.99 786.74 765.44 788.5 C769.9 791.79 769.9 791.79 771 794 C773.32 794.41 775.66 794.74 778 795 C778.1 795.63 778.19 796.25 778.29 796.9 C778.87 799.43 778.87 799.43 782.35 800.67 C783.77 801.19 785.19 801.7 786.62 802.19 C787.32 802.45 788.02 802.71 788.75 802.97 C793.15 804.56 797.33 805.45 802 806 C804.89 806.51 807.76 807.05 810.64 807.6 C812.93 808.06 812.93 808.06 815 808 C815.81 808.02 816.62 808.05 817.46 808.07 C818.42 808.09 819.38 808.11 820.38 808.12 C821.33 808.15 822.29 808.17 823.27 808.2 C826.1 807.99 827.55 807.33 830 806 C831.97 805.74 833.93 805.49 835.91 805.28 C840.52 804.66 846.12 803.49 849.81 800.56 C852 799 852 799 854.94 798.06 C858.33 796.89 860.28 795.3 863 793 C863.8 792.57 864.61 792.13 865.44 791.69 C868.38 789.75 870.17 787.55 872.38 784.84 C874.52 782.41 876.94 780.45 879.48 778.46 C881.25 776.76 881.97 775.23 883 773 C884.76 769.95 886.55 766.91 888.34 763.88 C890.85 759.62 890.85 759.62 892.5 755 C893 753 893 753 894 751.34 C895.4 748.06 895.36 745.05 895.5 741.5 C895.78 734.44 895.78 734.44 897.08 731.85 C898.37 729.26 897.82 727.72 897.19 724.94 C896.17 720.08 895.64 715.36 895.34 710.41 C894.93 707.5 894.11 705.11 892 703 C892.33 702.34 892.66 701.68 893 701 C892.05 698.97 891.05 696.98 890 695 C889.54 693.8 889.54 693.8 889.07 692.58 C887.99 689.98 886.72 687.88 885.12 685.56 C883.29 682.88 881.48 680.19 879.75 677.44 C879.17 676.63 878.6 675.83 878 675 C877.34 675 876.68 675 876 675 C875.01 673.51 875.01 673.51 874 672 C871.95 670.81 871.95 670.81 870 670 C870 669.34 870 668.68 870 668 C866.94 664.97 866.94 664.97 863 664 C863 663.34 863 662.68 863 662 C861.35 661.67 859.7 661.34 858 661 C858 660.34 858 659.68 858 659 C848.75 654.16 840.35 649.99 829.85 649.21 C828 649 828 649 826 648 C808.6 647.03 792.92 649.97 777.8 658.98 Z M768 660 C768.33 660.99 768.66 661.98 769 663 C769.66 662.67 770.32 662.34 771 662 C771 661.34 771 660.68 771 660 C770.01 660 769.02 660 768 660 Z M765 663 C765 663.99 765 664.98 765 666 C765.99 665.67 766.98 665.34 768 665 C767.67 664.34 767.34 663.68 767 663 C766.34 663 765.68 663 765 663 Z M755 673 C755 673.66 755 674.32 755 675 C754.34 675 753.68 675 753 675 C753.33 675.99 753.66 676.98 754 678 C756.04 676.64 756.04 676.64 758 675 C758 674.34 758 673.68 758 673 C757.01 673 756.02 673 755 673 Z M751 678 C750.67 678.99 750.34 679.98 750 681 C750.99 680.67 751.98 680.34 753 680 C752.34 679.34 751.68 678.68 751 678 Z M198 680 C198 680.99 198 681.98 198 683 C198.99 682.67 199.98 682.34 201 682 C201 681.34 201 680.68 201 680 C200.01 680 199.02 680 198 680 Z M1121 750 C1121.66 750.66 1122.32 751.32 1123 752 C1123 751.34 1123 750.68 1123 750 C1122.34 750 1121.68 750 1121 750 Z M1110 760 C1110 760.99 1110 761.98 1110 763 C1110.66 762.67 1111.32 762.34 1112 762 C1111.34 761.34 1110.68 760.68 1110 760 Z M403 808 C404 810 404 810 404 810 Z M405 808 C406 810 406 810 406 810 Z M948 818 C949 820 949 820 949 820 Z M950 818 C951 820 951 820 951 820 Z M393 823 C394 825 394 825 394 825 Z M395 823 C396 825 396 825 396 825 Z M940 828 C940.33 828.99 940.66 829.98 941 831 C941.66 830.67 942.32 830.34 943 830 C943 829.34 943 828.68 943 828 C942.01 828 941.02 828 940 828 Z M935 833 C935.33 833.99 935.66 834.98 936 836 C936.66 835.34 937.32 834.68 938 834 C937.01 833.67 936.02 833.34 935 833 Z M383 835 C383.33 835.99 383.66 836.98 384 838 C384.66 837.67 385.32 837.34 386 837 C386 836.34 386 835.68 386 835 C385.01 835 384.02 835 383 835 Z M934 835 C935 837 935 837 935 837 Z M380 838 C380 838.99 380 839.98 380 841 C380.99 840.67 381.98 840.34 383 840 C382.67 839.34 382.34 838.68 382 838 C381.34 838 380.68 838 380 838 Z M363 854 C363 854.66 363 855.32 363 856 C363.66 855.67 364.32 855.34 365 855 C364.34 854.67 363.68 854.34 363 854 Z M340 868 C340 868.99 340 869.98 340 871 C340.99 870.67 341.98 870.34 343 870 C343 869.34 343 868.68 343 868 C342.01 868 341.02 868 340 868 Z " fill="#000000" transform="translate(149,194)"/>
<path d="M0 0 C43.56 -0.05 87.12 -0.08 130.68 -0.1 C135.82 -0.1 140.96 -0.11 146.11 -0.11 C147.13 -0.11 148.15 -0.11 149.21 -0.11 C165.79 -0.12 182.36 -0.14 198.94 -0.15 C215.95 -0.17 232.96 -0.18 249.97 -0.19 C260.47 -0.19 270.96 -0.2 281.46 -0.22 C288.66 -0.23 295.85 -0.23 303.05 -0.23 C307.2 -0.23 311.35 -0.23 315.51 -0.24 C319.31 -0.25 323.11 -0.25 326.92 -0.24 C328.94 -0.24 330.97 -0.25 332.99 -0.26 C339.38 -0.24 344.88 0.17 351 2 C351.88 1.99 352.75 1.99 353.66 1.98 C356.72 2.01 358.74 3 361.5 4.31 C362.42 4.74 363.34 5.17 364.28 5.61 C373.78 10.46 380.27 17.88 384 28 C387.8 40.79 387.22 50.69 382 63 C381.34 63 380.68 63 380 63 C380 64.32 380 65.64 380 67 C379.34 67 378.68 67 378 67 C377.61 67.88 377.61 67.88 377.21 68.79 C373.17 76.17 364.74 80.53 357 83 C351.93 83.68 346.9 83.67 341.79 83.62 C340.27 83.63 338.75 83.63 337.24 83.64 C333.09 83.66 328.94 83.64 324.8 83.62 C320.32 83.61 315.84 83.62 311.35 83.63 C302.59 83.65 293.82 83.63 285.05 83.61 C274.84 83.59 264.63 83.59 254.42 83.59 C236.2 83.6 217.98 83.58 199.76 83.54 C182.08 83.51 164.4 83.49 146.72 83.5 C127.46 83.51 108.21 83.51 88.95 83.49 C87.42 83.48 87.42 83.48 85.86 83.48 C83.82 83.48 81.77 83.48 79.73 83.48 C72.61 83.47 65.49 83.47 58.37 83.47 C49.7 83.47 41.03 83.46 32.36 83.44 C27.93 83.43 23.51 83.42 19.08 83.42 C15.03 83.43 10.98 83.42 6.93 83.4 C5.47 83.4 4 83.4 2.54 83.4 C-10.96 83.45 -10.96 83.45 -17 80 C-17 79.34 -17 78.68 -17 78 C-17.76 77.9 -18.53 77.79 -19.31 77.69 C-22.3 76.92 -22.97 76.2 -25 74 C-25.89 73.5 -26.77 73.01 -27.69 72.5 C-28.45 72 -29.21 71.51 -30 71 C-30 70.01 -30 69.02 -30 68 C-30.99 68 -31.98 68 -33 68 C-38.74 56 -41.33 47.36 -41 34 C-40.01 33.5 -40.01 33.5 -39 33 C-38.8 31.02 -38.6 29.04 -38.41 27.06 C-37.8 24.02 -36.02 22.28 -34 20 C-33.81 19.04 -33.81 19.04 -33.62 18.05 C-32.77 15.26 -31.39 14.5 -29 12.88 C-25.98 10.9 -25.98 10.9 -24 8 C-21.44 7.38 -21.44 7.38 -19 7 C-19 6.34 -19 5.68 -19 5 C-18.48 4.88 -17.97 4.75 -17.44 4.62 C-15.53 4.14 -13.63 3.58 -11.75 3 C-7.79 1.94 -4.07 1.43 0 1 C0 0.67 0 0.34 0 0 Z M379 58 C379 58.99 379 59.98 379 61 C379.99 60.67 380.98 60.34 382 60 C382 59.34 382 58.68 382 58 C381.01 58 380.02 58 379 58 Z M374 65 C375.49 65.99 375.49 65.99 377 67 C377 66.34 377 65.68 377 65 C376.01 65 375.02 65 374 65 Z " fill="#000000" transform="translate(105,359)"/>
<path d="M0 0 C46.14 -0.02 92.28 -0.04 138.43 -0.05 C143.87 -0.05 149.32 -0.05 154.76 -0.05 C156.39 -0.06 156.39 -0.06 158.05 -0.06 C175.61 -0.06 193.17 -0.07 210.73 -0.08 C228.75 -0.09 246.76 -0.09 264.78 -0.09 C275.9 -0.1 287.02 -0.1 298.14 -0.11 C305.76 -0.11 313.38 -0.11 321 -0.11 C325.4 -0.11 329.8 -0.11 334.2 -0.12 C338.22 -0.12 342.25 -0.12 346.28 -0.12 C347.74 -0.12 349.19 -0.12 350.65 -0.12 C352.63 -0.13 354.61 -0.13 356.59 -0.12 C357.69 -0.12 358.79 -0.12 359.93 -0.12 C363.05 0 365.95 0.29 369 1 C369.33 1.66 369.66 2.32 370 3 C371.58 3.68 373.19 4.3 374.81 4.88 C378.67 6.35 381.49 7.58 384 11 C384 11.66 384 12.32 384 13 C384.99 13.33 385.98 13.66 387 14 C394.15 22.76 395.49 30.47 395.38 41.56 C395.39 42.66 395.4 43.76 395.41 44.89 C395.39 51.03 394.94 55.57 392 61 C391.34 61 390.68 61 390 61 C389.9 61.74 389.8 62.49 389.69 63.25 C388.2 69.19 383.05 73.55 378.06 76.81 C370.3 81.27 362.75 83.12 353.78 83.13 C352.55 83.14 351.31 83.14 350.04 83.14 C348.68 83.14 347.32 83.14 345.96 83.14 C344.51 83.14 343.05 83.15 341.6 83.15 C337.61 83.16 333.62 83.16 329.64 83.16 C325.33 83.16 321.03 83.17 316.73 83.18 C307.32 83.19 297.91 83.2 288.51 83.2 C282.63 83.2 276.75 83.21 270.88 83.21 C254.6 83.22 238.33 83.23 222.05 83.24 C220.49 83.24 220.49 83.24 218.9 83.24 C217.85 83.24 216.81 83.24 215.73 83.24 C213.62 83.24 211.5 83.24 209.39 83.24 C207.81 83.24 207.81 83.24 206.21 83.24 C189.21 83.24 172.22 83.26 155.22 83.29 C137.77 83.31 120.31 83.32 102.85 83.32 C93.06 83.32 83.26 83.33 73.46 83.35 C65.12 83.36 56.77 83.37 48.43 83.36 C44.17 83.36 39.92 83.36 35.66 83.37 C31.76 83.38 27.86 83.38 23.96 83.37 C22.55 83.37 21.15 83.37 19.74 83.38 C4.53 83.47 -8.58 80.66 -20 70 C-20 69.34 -20 68.68 -20 68 C-20.66 68 -21.32 68 -22 68 C-22.45 66.93 -22.91 65.86 -23.38 64.75 C-24.25 62.7 -25.14 60.73 -26.19 58.75 C-27 57 -27 57 -27 54 C-27.66 54 -28.32 54 -29 54 C-29.12 49.85 -29.19 45.71 -29.25 41.56 C-29.28 40.4 -29.32 39.23 -29.35 38.03 C-29.44 29.81 -28.66 22.99 -22.94 16.75 C-22.3 16.17 -21.66 15.6 -21 15 C-19.53 12.71 -18.22 10.43 -17 8 C-15.36 7.27 -13.69 6.61 -12 6 C-9.57 5.05 -7.21 4.1 -4.88 2.94 C-3 2 -3 2 0 1 C0 0.67 0 0.34 0 0 Z M390 22 C391 24 391 24 391 24 Z M385 63 C385 63.66 385 64.32 385 65 C384.01 65.5 384.01 65.5 383 66 C383.99 66.33 384.98 66.66 386 67 C386.66 65.68 387.32 64.36 388 63 C387.01 63 386.02 63 385 63 Z M375 73 C375 73.99 375 74.98 375 76 C375.99 75.67 376.98 75.34 378 75 C378 74.34 378 73.68 378 73 C377.01 73 376.02 73 375 73 Z " fill="#000000" transform="translate(29,519)"/>
<path d="M0 0 C0.78 -0 1.56 -0.01 2.36 -0.01 C4.97 -0.02 7.58 -0.02 10.19 -0.02 C12.06 -0.03 13.93 -0.03 15.8 -0.04 C20.89 -0.05 25.98 -0.06 31.07 -0.06 C34.25 -0.06 37.43 -0.07 40.61 -0.07 C50.57 -0.08 60.54 -0.09 70.5 -0.1 C81.98 -0.1 93.46 -0.12 104.95 -0.15 C113.83 -0.17 122.72 -0.18 131.6 -0.18 C136.9 -0.18 142.21 -0.19 147.51 -0.21 C152.5 -0.22 157.5 -0.23 162.49 -0.22 C164.32 -0.22 166.14 -0.22 167.97 -0.23 C178.15 -0.28 187.47 0.15 197.32 3.14 C198.4 3.46 199.49 3.78 200.61 4.12 C203.32 5.14 203.32 5.14 204.32 7.14 C205.02 7.35 205.72 7.55 206.44 7.77 C213.09 10.94 218.12 18.63 221.32 25.14 C222.07 28.58 222.07 28.58 222.32 31.14 C222.65 31.47 222.98 31.8 223.32 32.14 C223.6 35.51 223.55 38.89 223.57 42.27 C223.6 43.67 223.6 43.67 223.63 45.11 C223.66 50.92 223.03 54.98 220.32 60.14 C219.66 60.14 219 60.14 218.32 60.14 C218.21 60.9 218.11 61.67 218 62.45 C217.25 65.41 216.5 66.13 214.32 68.14 C214.01 68.84 213.7 69.54 213.38 70.27 C212.32 72.14 212.32 72.14 210.19 72.89 C209.57 72.97 208.95 73.06 208.32 73.14 C208.32 73.8 208.32 74.46 208.32 75.14 C206.78 76.36 206.78 76.36 204.69 77.64 C203.68 78.27 203.68 78.27 202.65 78.92 C197.07 81.83 191.96 82.44 185.74 82.42 C184.47 82.43 184.47 82.43 183.17 82.44 C180.32 82.46 177.48 82.46 174.64 82.46 C172.6 82.47 170.56 82.48 168.52 82.49 C162.98 82.52 157.44 82.53 151.9 82.54 C148.44 82.55 144.97 82.55 141.51 82.56 C130.66 82.59 119.82 82.61 108.97 82.62 C96.47 82.63 83.96 82.66 71.46 82.72 C61.78 82.76 52.11 82.78 42.43 82.79 C36.66 82.79 30.88 82.8 25.11 82.84 C19.67 82.87 14.24 82.87 8.8 82.86 C6.81 82.85 4.83 82.86 2.84 82.88 C-11.51 83.02 -21.84 81.41 -32.68 71.14 C-42.11 61.71 -44.89 49.08 -44.95 36.15 C-44.68 33.14 -44.68 33.14 -42.68 31.14 C-42.34 29.14 -42 27.14 -41.68 25.14 C-39.81 20.39 -36.33 16.64 -32.68 13.14 C-31.86 12.27 -31.03 11.41 -30.18 10.52 C-27.68 8.14 -27.68 8.14 -24.68 7.14 C-24.35 6.48 -24.02 5.82 -23.68 5.14 C-19.83 3.33 -15.78 2.26 -11.68 1.14 C-10.82 0.87 -10.82 0.87 -9.95 0.59 C-6.64 -0.07 -3.36 -0 0 0 Z M213.32 62.14 C214.8 63.13 214.8 63.13 216.32 64.14 C216.32 63.48 216.32 62.82 216.32 62.14 C215.33 62.14 214.34 62.14 213.32 62.14 Z " fill="#000000" transform="translate(108.68260192871094,676.8595581054688)"/>
<path d="M0 0 C104.61 0 209.22 0 317 0 C317 0.33 317 0.66 317 1 C212.39 1 107.78 1 0 1 C0 0.67 0 0.34 0 0 Z " fill="#FDFDFD" transform="translate(821,600)"/>
<path d="M0 0 C64.68 0 129.36 0 196 0 C196 0.33 196 0.66 196 1 C131.32 1 66.64 1 0 1 C0 0.67 0 0.34 0 0 Z " fill="#FDFDFD" transform="translate(101,760)"/>
<path d="M0 0 C0.33 0 0.66 0 1 0 C1 4.95 1 9.9 1 15 C0.67 15 0.34 15 0 15 C0 10.05 0 5.1 0 0 Z " fill="#FDFDFD" transform="translate(425,553)"/>
<path d="M0 0 C0.66 0.33 1.32 0.66 2 1 C1.01 1.66 0.02 2.32 -1 3 C-0.67 2.01 -0.34 1.02 0 0 Z " fill="#000000" transform="translate(859,798)"/>
<path d="M0 0 C2 1 2 1 2 1 Z " fill="#FDFDFD" transform="translate(929,1080)"/>
<path d="" fill="#000000" transform="translate(0,0)"/>
<path d="M0 0 C2 1 2 1 2 1 Z " fill="#000000" transform="translate(459,984)"/>
<path d="M0 0 C2 1 2 1 2 1 Z " fill="#000000" transform="translate(128,889)"/>
<path d="" fill="#000000" transform="translate(0,0)"/>
<path d="M0 0 C2 1 2 1 2 1 Z " fill="#000000" transform="translate(14,524)"/>
<path d="" fill="#FDFDFD" transform="translate(0,0)"/>
<path d="" fill="#FDFDFD" transform="translate(0,0)"/>
<path d="M0 0 C2 1 2 1 2 1 Z " fill="#000000" transform="translate(1035,274)"/>
<path d="" fill="#000000" transform="translate(0,0)"/>
<path d="" fill="#FDFDFD" transform="translate(0,0)"/>
<path d="" fill="#FDFDFD" transform="translate(0,0)"/>
<path d="" fill="#FDFDFD" transform="translate(0,0)"/>
<path d="" fill="#FDFDFD" transform="translate(0,0)"/>
<path d="" fill="#7F7E7D" transform="translate(0,0)"/>
<path d="" fill="#000000" transform="translate(0,0)"/>
<path d="" fill="#000000" transform="translate(0,0)"/>
<path d="" fill="#000000" transform="translate(0,0)"/>
<path d="" fill="#7F7E7D" transform="translate(0,0)"/>
<path d="" fill="#7F7E7D" transform="translate(0,0)"/>
<path d="" fill="#7F7E7D" transform="translate(0,0)"/>
<path d="" fill="#7F7E7D" transform="translate(0,0)"/>
<path d="" fill="#000000" transform="translate(0,0)"/>
<path d="" fill="#000000" transform="translate(0,0)"/>
<path d="" fill="#000000" transform="translate(0,0)"/>
<path d="" fill="#000000" transform="translate(0,0)"/>
<path d="" fill="#000000" transform="translate(0,0)"/>
<path d="" fill="#000000" transform="translate(0,0)"/>
<path d="" fill="#000000" transform="translate(0,0)"/>
<path d="" fill="#000000" transform="translate(0,0)"/>
<path d="" fill="#000000" transform="translate(0,0)"/>
<path d="" fill="#000000" transform="translate(0,0)"/>
<path d="" fill="#000000" transform="translate(0,0)"/>
<path d="" fill="#000000" transform="translate(0,0)"/>
<path d="" fill="#000000" transform="translate(0,0)"/>
<path d="" fill="#000000" transform="translate(0,0)"/>
<path d="" fill="#000000" transform="translate(0,0)"/>
<path d="" fill="#FDFDFD" transform="translate(0,0)"/>
<path d="" fill="#000000" transform="translate(0,0)"/>
<path d="" fill="#000000" transform="translate(0,0)"/>
<path d="" fill="#000000" transform="translate(0,0)"/>
<path d="" fill="#000000" transform="translate(0,0)"/>
<path d="" fill="#000000" transform="translate(0,0)"/>
<path d="" fill="#000000" transform="translate(0,0)"/>
<path d="" fill="#000000" transform="translate(0,0)"/>
<path d="" fill="#FDFDFD" transform="translate(0,0)"/>
<path d="" fill="#000000" transform="translate(0,0)"/>
<path d="" fill="#000000" transform="translate(0,0)"/>
<path d="" fill="#000000" transform="translate(0,0)"/>
<path d="" fill="#000000" transform="translate(0,0)"/>
<path d="" fill="#000000" transform="translate(0,0)"/>
<path d="" fill="#FDFDFD" transform="translate(0,0)"/>
<path d="" fill="#000000" transform="translate(0,0)"/>
<path d="" fill="#000000" transform="translate(0,0)"/>
<path d="" fill="#FDFDFD" transform="translate(0,0)"/>
<path d="" fill="#000000" transform="translate(0,0)"/>
<path d="" fill="#000000" transform="translate(0,0)"/>
<path d="" fill="#000000" transform="translate(0,0)"/>
<path d="" fill="#FDFDFD" transform="translate(0,0)"/>
<path d="" fill="#000000" transform="translate(0,0)"/>
<path d="" fill="#000000" transform="translate(0,0)"/>
<path d="" fill="#000000" transform="translate(0,0)"/>
<path d="" fill="#000000" transform="translate(0,0)"/>
<path d="" fill="#7F7E7D" transform="translate(0,0)"/>
<path d="" fill="#7F7E7D" transform="translate(0,0)"/>
<path d="" fill="#FDFDFD" transform="translate(0,0)"/>
<path d="" fill="#7F7E7D" transform="translate(0,0)"/>
<path d="" fill="#000000" transform="translate(0,0)"/>
<path d="" fill="#7F7E7D" transform="translate(0,0)"/>
<path d="" fill="#000000" transform="translate(0,0)"/>
<path d="" fill="#000000" transform="translate(0,0)"/>
<path d="" fill="#000000" transform="translate(0,0)"/>
<path d="" fill="#000000" transform="translate(0,0)"/>
<path d="" fill="#7F7E7D" transform="translate(0,0)"/>
<path d="" fill="#7F7E7D" transform="translate(0,0)"/>
<path d="" fill="#FDFDFD" transform="translate(0,0)"/>
<path d="" fill="#FDFDFD" transform="translate(0,0)"/>
<path d="" fill="#000000" transform="translate(0,0)"/>
<path d="" fill="#000000" transform="translate(0,0)"/>
<path d="" fill="#000000" transform="translate(0,0)"/>
<path d="" fill="#000000" transform="translate(0,0)"/>
<path d="" fill="#000000" transform="translate(0,0)"/>
<path d="" fill="#000000" transform="translate(0,0)"/>
<path d="" fill="#000000" transform="translate(0,0)"/>
<path d="" fill="#000000" transform="translate(0,0)"/>
<path d="" fill="#000000" transform="translate(0,0)"/>
<path d="" fill="#000000" transform="translate(0,0)"/>
<path d="" fill="#000000" transform="translate(0,0)"/>
<path d="" fill="#000000" transform="translate(0,0)"/>
<path d="" fill="#000000" transform="translate(0,0)"/>
<path d="" fill="#000000" transform="translate(0,0)"/>
<path d="" fill="#000000" transform="translate(0,0)"/>
<path d="" fill="#000000" transform="translate(0,0)"/>
<path d="" fill="#000000" transform="translate(0,0)"/>
<path d="" fill="#000000" transform="translate(0,0)"/>
<path d="" fill="#000000" transform="translate(0,0)"/>
<path d="" fill="#000000" transform="translate(0,0)"/>
<path d="" fill="#000000" transform="translate(0,0)"/>
<path d="" fill="#000000" transform="translate(0,0)"/>
<path d="" fill="#000000" transform="translate(0,0)"/>
<path d="" fill="#000000" transform="translate(0,0)"/>
<path d="" fill="#000000" transform="translate(0,0)"/>
<path d="" fill="#000000" transform="translate(0,0)"/>
<path d="" fill="#000000" transform="translate(0,0)"/>
<path d="" fill="#FDFDFD" transform="translate(0,0)"/>
<path d="" fill="#000000" transform="translate(0,0)"/>
<path d="" fill="#000000" transform="translate(0,0)"/>
<path d="" fill="#FDFDFD" transform="translate(0,0)"/>
<path d="" fill="#000000" transform="translate(0,0)"/>
<path d="" fill="#000000" transform="translate(0,0)"/>
<path d="" fill="#000000" transform="translate(0,0)"/>
<path d="" fill="#000000" transform="translate(0,0)"/>
<path d="" fill="#000000" transform="translate(0,0)"/>
<path d="" fill="#000000" transform="translate(0,0)"/>
<path d="" fill="#000000" transform="translate(0,0)"/>
<path d="" fill="#7F7E7D" transform="translate(0,0)"/>
<path d="" fill="#000000" transform="translate(0,0)"/>
<path d="" fill="#000000" transform="translate(0,0)"/>
<path d="" fill="#7F7E7D" transform="translate(0,0)"/>
<path d="" fill="#000000" transform="translate(0,0)"/>
<path d="" fill="#000000" transform="translate(0,0)"/>
<path d="" fill="#000000" transform="translate(0,0)"/>
<path d="" fill="#000000" transform="translate(0,0)"/>
<path d="" fill="#FDFDFD" transform="translate(0,0)"/>
<path d="" fill="#000000" transform="translate(0,0)"/>
<path d="" fill="#000000" transform="translate(0,0)"/>
<path d="" fill="#7F7E7D" transform="translate(0,0)"/>
<path d="" fill="#000000" transform="translate(0,0)"/>
<path d="" fill="#000000" transform="translate(0,0)"/>
<path d="" fill="#000000" transform="translate(0,0)"/>
<path d="" fill="#000000" transform="translate(0,0)"/>
<path d="" fill="#000000" transform="translate(0,0)"/>
<path d="" fill="#000000" transform="translate(0,0)"/>
<path d="" fill="#000000" transform="translate(0,0)"/>
<path d="" fill="#000000" transform="translate(0,0)"/>
<path d="" fill="#000000" transform="translate(0,0)"/>
<path d="" fill="#000000" transform="translate(0,0)"/>
<path d="" fill="#000000" transform="translate(0,0)"/>
<path d="" fill="#000000" transform="translate(0,0)"/>
<path d="" fill="#000000" transform="translate(0,0)"/>
<path d="" fill="#FDFDFD" transform="translate(0,0)"/>
<path d="" fill="#000000" transform="translate(0,0)"/>
<path d="" fill="#000000" transform="translate(0,0)"/>
<path d="" fill="#000000" transform="translate(0,0)"/>
<path d="" fill="#000000" transform="translate(0,0)"/>
<path d="" fill="#000000" transform="translate(0,0)"/>
<path d="" fill="#000000" transform="translate(0,0)"/>
<path d="" fill="#000000" transform="translate(0,0)"/>
<path d="" fill="#000000" transform="translate(0,0)"/>
</svg>
